<svg width="15" height="25" viewBox="0 0 15 25" fill="none" xmlns="http://www.w3.org/2000/svg">
<path d="M13.0156 4.0625C13.2448 4.27083 13.3906 4.58333 13.4531 5C13.5156 5.39583 13.651 6.02083 13.8594 6.875C14.0677 7.72917 14.026 8.64583 13.7344 9.625C13.5677 10.1875 13.4635 10.6458 13.4219 11C13.2969 11.6667 13.151 12.2396 12.9844 12.7188C12.8385 13.1771 12.6927 13.75 12.5469 14.4375C12.401 15.1042 12.2135 15.6875 11.9844 16.1875C11.7552 16.6667 11.5677 17.0208 11.4219 17.25C11.2969 17.4792 11.1823 17.6875 11.0781 17.875C10.8281 18.3542 10.6719 18.7188 10.6094 18.9688C10.5677 19.2188 10.4948 19.5 10.3906 19.8125C10.3073 20.1042 10.1927 20.3958 10.0469 20.6875C9.65104 21.3542 9.17188 21.6042 8.60938 21.4375C7.90104 22 7.44271 22.4479 7.23438 22.7812C7.02604 23.0938 6.83854 23.3229 6.67188 23.4688C6.50521 23.6146 6.33854 23.7188 6.17188 23.7812C6.02604 23.8438 5.88021 23.8958 5.73438 23.9375C5.58854 23.9792 5.44271 24.0521 5.29688 24.1562C5.15104 24.2604 4.94271 24.3438 4.67188 24.4062C4.42188 24.4896 4.16146 24.5 3.89062 24.4375C3.22396 24.3125 2.86979 23.7708 2.82812 22.8125C2.28646 22.6042 1.94271 22.4062 1.79688 22.2188C1.46354 21.8438 1.29688 21.3646 1.29688 20.7812C1.29688 20.1771 1.32812 19.6979 1.39062 19.3438C1.47396 18.9688 1.54688 18.6146 1.60938 18.2812C1.79688 17.4688 1.82812 16.8333 1.70312 16.375C1.57812 15.8958 1.53646 15.4583 1.57812 15.0625C1.64062 14.6458 1.65104 14.1979 1.60938 13.7188C1.58854 13.2188 1.58854 12.7812 1.60938 12.4062C1.65104 12.0312 1.68229 11.6771 1.70312 11.3438C1.74479 10.9896 1.76562 10.6667 1.76562 10.375C1.76562 10.0833 1.70312 9.8125 1.57812 9.5625C1.45312 9.29167 1.34896 9.02083 1.26562 8.75C1.20312 8.47917 1.15104 8.22917 1.10938 8C1.04688 7.4375 0.942708 7.03125 0.796875 6.78125C0.671875 6.53125 0.619792 6.23958 0.640625 5.90625C0.661458 5.55208 0.630208 5.20833 0.546875 4.875C0.484375 4.52083 0.453125 4.25 0.453125 4.0625C0.473958 3.85417 0.453125 3.64583 0.390625 3.4375C0.348958 3.20833 0.369792 3.07292 0.453125 3.03125C0.578125 2.96875 0.692708 2.70833 0.796875 2.25C0.901042 1.79167 1.02604 1.51042 1.17188 1.40625C1.31771 1.28125 1.47396 1.17708 1.64062 1.09375C1.80729 0.989583 1.99479 0.916667 2.20312 0.875C2.68229 0.8125 3.11979 0.895833 3.51562 1.125C3.93229 1.35417 4.23438 1.45833 4.42188 1.4375C4.63021 1.41667 4.83854 1.35417 5.04688 1.25C5.71354 0.979167 6.35938 0.84375 6.98438 0.84375C7.60938 0.84375 8.04688 0.885417 8.29688 0.96875C8.54688 1.03125 8.74479 1.10417 8.89062 1.1875C9.03646 1.25 9.17188 1.32292 9.29688 1.40625C9.44271 1.46875 9.64062 1.5 9.89062 1.5C10.1615 1.5 10.3594 1.5625 10.4844 1.6875C10.6094 1.8125 10.724 1.95833 10.8281 2.125C10.9531 2.29167 11.0885 2.45833 11.2344 2.625C11.3802 2.79167 11.5677 2.90625 11.7969 2.96875C12.0469 3.01042 12.2031 3.0625 12.2656 3.125C12.349 3.16667 12.4115 3.22917 12.4531 3.3125C12.4948 3.375 12.5365 3.45833 12.5781 3.5625C12.6406 3.66667 12.7865 3.83333 13.0156 4.0625ZM6.42188 8.875C6.21354 9.10417 6.13021 9.47917 6.17188 10C6.21354 10.5 6.28646 11.0729 6.39062 11.7188C6.49479 12.3438 6.53646 12.8646 6.51562 13.2812C6.49479 13.6979 6.45312 14.1042 6.39062 14.5C6.34896 14.8958 6.29688 15.2917 6.23438 15.6875C6.19271 16.0833 6.17188 16.4792 6.17188 16.875C6.17188 17.25 6.22396 17.5208 6.32812 17.6875C6.43229 17.8542 6.54688 17.9375 6.67188 17.9375C6.79688 17.9167 6.92188 17.8333 7.04688 17.6875C7.17188 17.5208 7.25521 17.2604 7.29688 16.9062C7.35938 16.5312 7.49479 16.1771 7.70312 15.8438C7.93229 15.4896 8.10938 15.1354 8.23438 14.7812C8.35938 14.4271 8.43229 14.1667 8.45312 14C8.49479 13.8333 8.52604 13.6875 8.54688 13.5625C8.56771 13.4167 8.57812 13.2708 8.57812 13.125C8.59896 12.9583 8.66146 12.7083 8.76562 12.375C8.86979 12.0417 8.88021 11.75 8.79688 11.5C8.73438 11.2292 8.68229 10.9271 8.64062 10.5938C8.59896 10.2604 8.52604 9.95833 8.42188 9.6875C8.33854 9.39583 8.13021 9.19792 7.79688 9.09375C7.65104 9.05208 7.51562 8.98958 7.39062 8.90625C7.28646 8.82292 7.18229 8.75 7.07812 8.6875C6.84896 8.58333 6.63021 8.64583 6.42188 8.875Z" fill="#DD1669"/>
</svg>
